<?xml version="1.0" encoding="UTF-8" standalone="no"?>
<!DOCTYPE svg PUBLIC "-//W3C//DTD SVG 1.1//EN"
 "http://www.w3.org/Graphics/SVG/1.1/DTD/svg11.dtd">
<!-- Generated by graphviz version 2.43.20190912.0211 (20190912.0211)
 -->
<!-- Title: G Pages: 1 -->
<svg width="294pt" height="476pt"
 viewBox="0.00 0.00 293.50 476.00" xmlns="http://www.w3.org/2000/svg" xmlns:xlink="http://www.w3.org/1999/xlink">
<g id="graph0" class="graph" transform="scale(1 1) rotate(0) translate(4 472)">
<title>G</title>
<polygon fill="white" stroke="transparent" points="-4,4 -4,-472 289.5,-472 289.5,4 -4,4"/>
<!-- program -->
<g id="node1" class="node">
<title>program</title>
<polygon fill="none" stroke="black" points="190,-468 127,-468 127,-432 190,-432 190,-468"/>
<text text-anchor="middle" x="158.5" y="-446.3" font-family="Times,serif" font-size="14.00">program</text>
</g>
<!-- ss2 -->
<g id="node2" class="node">
<title>ss2</title>
<polygon fill="none" stroke="black" points="195.5,-396 121.5,-396 121.5,-360 195.5,-360 195.5,-396"/>
<text text-anchor="middle" x="158.5" y="-374.3" font-family="Times,serif" font-size="14.00">statements</text>
</g>
<!-- program&#45;&#45;ss2 -->
<g id="edge1" class="edge">
<title>program&#45;&#45;ss2</title>
<path fill="none" stroke="black" d="M158.5,-431.7C158.5,-420.85 158.5,-406.92 158.5,-396.1"/>
</g>
<!-- ss1 -->
<g id="node3" class="node">
<title>ss1</title>
<polygon fill="none" stroke="black" points="150.5,-324 76.5,-324 76.5,-288 150.5,-288 150.5,-324"/>
<text text-anchor="middle" x="113.5" y="-302.3" font-family="Times,serif" font-size="14.00">statements</text>
</g>
<!-- ss2&#45;&#45;ss1 -->
<g id="edge2" class="edge">
<title>ss2&#45;&#45;ss1</title>
<path fill="none" stroke="black" d="M147.38,-359.7C140.4,-348.85 131.45,-334.92 124.5,-324.1"/>
</g>
<!-- s2 -->
<g id="node10" class="node">
<title>s2</title>
<polygon fill="none" stroke="black" points="245,-324 176,-324 176,-288 245,-288 245,-324"/>
<text text-anchor="middle" x="210.5" y="-302.3" font-family="Times,serif" font-size="14.00">statement</text>
</g>
<!-- ss2&#45;&#45;s2 -->
<g id="edge9" class="edge">
<title>ss2&#45;&#45;s2</title>
<path fill="none" stroke="black" d="M171.35,-359.7C179.41,-348.85 189.76,-334.92 197.79,-324.1"/>
</g>
<!-- s1 -->
<g id="node4" class="node">
<title>s1</title>
<polygon fill="none" stroke="black" points="133,-252 64,-252 64,-216 133,-216 133,-252"/>
<text text-anchor="middle" x="98.5" y="-230.3" font-family="Times,serif" font-size="14.00">statement</text>
</g>
<!-- ss1&#45;&#45;s1 -->
<g id="edge3" class="edge">
<title>ss1&#45;&#45;s1</title>
<path fill="none" stroke="black" d="M109.79,-287.7C107.47,-276.85 104.48,-262.92 102.17,-252.1"/>
</g>
<!-- e1 -->
<g id="node5" class="node">
<title>e1</title>
<polygon fill="none" stroke="black" points="150.5,-180 46.5,-180 46.5,-144 150.5,-144 150.5,-180"/>
<text text-anchor="middle" x="98.5" y="-158.3" font-family="Times,serif" font-size="14.00">expression (+=)</text>
</g>
<!-- s1&#45;&#45;e1 -->
<g id="edge4" class="edge">
<title>s1&#45;&#45;e1</title>
<path fill="none" stroke="black" d="M98.5,-215.7C98.5,-204.85 98.5,-190.92 98.5,-180.1"/>
</g>
<!-- l1 -->
<g id="node6" class="node">
<title>l1</title>
<polygon fill="none" stroke="black" points="73,-108 0,-108 0,-72 73,-72 73,-108"/>
<text text-anchor="middle" x="36.5" y="-86.3" font-family="Times,serif" font-size="14.00">lhs (deref)</text>
</g>
<!-- e1&#45;&#45;l1 -->
<g id="edge5" class="edge">
<title>e1&#45;&#45;l1</title>
<path fill="none" stroke="black" d="M83.17,-143.7C73.56,-132.85 61.23,-118.92 51.65,-108.1"/>
</g>
<!-- r1 -->
<g id="node8" class="node">
<title>r1</title>
<polygon fill="none" stroke="black" points="145.5,-108 91.5,-108 91.5,-72 145.5,-72 145.5,-108"/>
<text text-anchor="middle" x="118.5" y="-86.3" font-family="Times,serif" font-size="14.00">rhs</text>
</g>
<!-- e1&#45;&#45;r1 -->
<g id="edge7" class="edge">
<title>e1&#45;&#45;r1</title>
<path fill="none" stroke="black" d="M103.44,-143.7C106.54,-132.85 110.52,-118.92 113.61,-108.1"/>
</g>
<!-- v1 -->
<g id="node7" class="node">
<title>v1</title>
<polygon fill="none" stroke="black" points="63.5,-36 9.5,-36 9.5,0 63.5,0 63.5,-36"/>
<text text-anchor="middle" x="36.5" y="-14.3" font-family="Times,serif" font-size="14.00">&quot;ptr&quot;</text>
</g>
<!-- l1&#45;&#45;v1 -->
<g id="edge6" class="edge">
<title>l1&#45;&#45;v1</title>
<path fill="none" stroke="black" d="M36.5,-71.7C36.5,-60.85 36.5,-46.92 36.5,-36.1"/>
</g>
<!-- v2 -->
<g id="node9" class="node">
<title>v2</title>
<polygon fill="none" stroke="black" points="145.5,-36 91.5,-36 91.5,0 145.5,0 145.5,-36"/>
<text text-anchor="middle" x="118.5" y="-14.3" font-family="Times,serif" font-size="14.00">65</text>
</g>
<!-- r1&#45;&#45;v2 -->
<g id="edge8" class="edge">
<title>r1&#45;&#45;v2</title>
<path fill="none" stroke="black" d="M118.5,-71.7C118.5,-60.85 118.5,-46.92 118.5,-36.1"/>
</g>
<!-- e2 -->
<g id="node11" class="node">
<title>e2</title>
<polygon fill="none" stroke="black" points="285.5,-252 151.5,-252 151.5,-216 285.5,-216 285.5,-252"/>
<text text-anchor="middle" x="218.5" y="-230.3" font-family="Times,serif" font-size="14.00">expression (func call)</text>
</g>
<!-- s2&#45;&#45;e2 -->
<g id="edge10" class="edge">
<title>s2&#45;&#45;e2</title>
<path fill="none" stroke="black" d="M212.48,-287.7C213.72,-276.85 215.31,-262.92 216.55,-252.1"/>
</g>
<!-- l2 -->
<g id="node12" class="node">
<title>l2</title>
<polygon fill="none" stroke="black" points="248.5,-180 188.5,-180 188.5,-144 248.5,-144 248.5,-180"/>
<text text-anchor="middle" x="218.5" y="-158.3" font-family="Times,serif" font-size="14.00">lhs (ptr)</text>
</g>
<!-- e2&#45;&#45;l2 -->
<g id="edge11" class="edge">
<title>e2&#45;&#45;l2</title>
<path fill="none" stroke="black" d="M218.5,-215.7C218.5,-204.85 218.5,-190.92 218.5,-180.1"/>
</g>
<!-- v3 -->
<g id="node13" class="node">
<title>v3</title>
<polygon fill="none" stroke="black" points="253,-108 184,-108 184,-72 253,-72 253,-108"/>
<text text-anchor="middle" x="218.5" y="-86.3" font-family="Times,serif" font-size="14.00">&quot;putchar&quot;</text>
</g>
<!-- l2&#45;&#45;v3 -->
<g id="edge12" class="edge">
<title>l2&#45;&#45;v3</title>
<path fill="none" stroke="black" d="M218.5,-143.7C218.5,-132.85 218.5,-118.92 218.5,-108.1"/>
</g>
</g>
</svg>
