<?xml version="1.0" encoding="UTF-8" standalone="no"?>
<!DOCTYPE svg PUBLIC "-//W3C//DTD SVG 1.1//EN"
 "http://www.w3.org/Graphics/SVG/1.1/DTD/svg11.dtd">
<!-- Generated by graphviz version 2.43.20190912.0211 (20190912.0211)
 -->
<!-- Title: G Pages: 1 -->
<svg width="280pt" height="476pt"
 viewBox="0.00 0.00 280.00 476.00" xmlns="http://www.w3.org/2000/svg" xmlns:xlink="http://www.w3.org/1999/xlink">
<g id="graph0" class="graph" transform="scale(1 1) rotate(0) translate(4 472)">
<title>G</title>
<polygon fill="white" stroke="transparent" points="-4,4 -4,-472 276,-472 276,4 -4,4"/>
<!-- program -->
<g id="node1" class="node">
<title>program</title>
<polygon fill="none" stroke="black" points="176.5,-468 113.5,-468 113.5,-432 176.5,-432 176.5,-468"/>
<text text-anchor="middle" x="145" y="-446.3" font-family="Times,serif" font-size="14.00">program</text>
</g>
<!-- ss2 -->
<g id="node2" class="node">
<title>ss2</title>
<polygon fill="none" stroke="black" points="182,-396 108,-396 108,-360 182,-360 182,-396"/>
<text text-anchor="middle" x="145" y="-374.3" font-family="Times,serif" font-size="14.00">statements</text>
</g>
<!-- program&#45;&#45;ss2 -->
<g id="edge1" class="edge">
<title>program&#45;&#45;ss2</title>
<path fill="none" stroke="black" d="M145,-431.7C145,-420.85 145,-406.92 145,-396.1"/>
</g>
<!-- ss1 -->
<g id="node3" class="node">
<title>ss1</title>
<polygon fill="none" stroke="black" points="137,-324 63,-324 63,-288 137,-288 137,-324"/>
<text text-anchor="middle" x="100" y="-302.3" font-family="Times,serif" font-size="14.00">statements</text>
</g>
<!-- ss2&#45;&#45;ss1 -->
<g id="edge2" class="edge">
<title>ss2&#45;&#45;ss1</title>
<path fill="none" stroke="black" d="M133.88,-359.7C126.9,-348.85 117.95,-334.92 111,-324.1"/>
</g>
<!-- s2 -->
<g id="node10" class="node">
<title>s2</title>
<polygon fill="none" stroke="black" points="231.5,-324 162.5,-324 162.5,-288 231.5,-288 231.5,-324"/>
<text text-anchor="middle" x="197" y="-302.3" font-family="Times,serif" font-size="14.00">statement</text>
</g>
<!-- ss2&#45;&#45;s2 -->
<g id="edge9" class="edge">
<title>ss2&#45;&#45;s2</title>
<path fill="none" stroke="black" d="M157.85,-359.7C165.91,-348.85 176.26,-334.92 184.29,-324.1"/>
</g>
<!-- s1 -->
<g id="node4" class="node">
<title>s1</title>
<polygon fill="none" stroke="black" points="119.5,-252 50.5,-252 50.5,-216 119.5,-216 119.5,-252"/>
<text text-anchor="middle" x="85" y="-230.3" font-family="Times,serif" font-size="14.00">statement</text>
</g>
<!-- ss1&#45;&#45;s1 -->
<g id="edge3" class="edge">
<title>ss1&#45;&#45;s1</title>
<path fill="none" stroke="black" d="M96.29,-287.7C93.97,-276.85 90.98,-262.92 88.67,-252.1"/>
</g>
<!-- e1 -->
<g id="node5" class="node">
<title>e1</title>
<polygon fill="none" stroke="black" points="137,-180 33,-180 33,-144 137,-144 137,-180"/>
<text text-anchor="middle" x="85" y="-158.3" font-family="Times,serif" font-size="14.00">expression (+=)</text>
</g>
<!-- s1&#45;&#45;e1 -->
<g id="edge4" class="edge">
<title>s1&#45;&#45;e1</title>
<path fill="none" stroke="black" d="M85,-215.7C85,-204.85 85,-190.92 85,-180.1"/>
</g>
<!-- l1 -->
<g id="node6" class="node">
<title>l1</title>
<polygon fill="none" stroke="black" points="60,-108 0,-108 0,-72 60,-72 60,-108"/>
<text text-anchor="middle" x="30" y="-86.3" font-family="Times,serif" font-size="14.00">lhs (ptr)</text>
</g>
<!-- e1&#45;&#45;l1 -->
<g id="edge5" class="edge">
<title>e1&#45;&#45;l1</title>
<path fill="none" stroke="black" d="M71.4,-143.7C62.88,-132.85 51.93,-118.92 43.44,-108.1"/>
</g>
<!-- r1 -->
<g id="node8" class="node">
<title>r1</title>
<polygon fill="none" stroke="black" points="132,-108 78,-108 78,-72 132,-72 132,-108"/>
<text text-anchor="middle" x="105" y="-86.3" font-family="Times,serif" font-size="14.00">rhs</text>
</g>
<!-- e1&#45;&#45;r1 -->
<g id="edge7" class="edge">
<title>e1&#45;&#45;r1</title>
<path fill="none" stroke="black" d="M89.94,-143.7C93.04,-132.85 97.02,-118.92 100.11,-108.1"/>
</g>
<!-- v1 -->
<g id="node7" class="node">
<title>v1</title>
<polygon fill="none" stroke="black" points="57,-36 3,-36 3,0 57,0 57,-36"/>
<text text-anchor="middle" x="30" y="-14.3" font-family="Times,serif" font-size="14.00">&quot;ptr&quot;</text>
</g>
<!-- l1&#45;&#45;v1 -->
<g id="edge6" class="edge">
<title>l1&#45;&#45;v1</title>
<path fill="none" stroke="black" d="M30,-71.7C30,-60.85 30,-46.92 30,-36.1"/>
</g>
<!-- v2 -->
<g id="node9" class="node">
<title>v2</title>
<polygon fill="none" stroke="black" points="132,-36 78,-36 78,0 132,0 132,-36"/>
<text text-anchor="middle" x="105" y="-14.3" font-family="Times,serif" font-size="14.00">65</text>
</g>
<!-- r1&#45;&#45;v2 -->
<g id="edge8" class="edge">
<title>r1&#45;&#45;v2</title>
<path fill="none" stroke="black" d="M105,-71.7C105,-60.85 105,-46.92 105,-36.1"/>
</g>
<!-- e2 -->
<g id="node11" class="node">
<title>e2</title>
<polygon fill="none" stroke="black" points="272,-252 138,-252 138,-216 272,-216 272,-252"/>
<text text-anchor="middle" x="205" y="-230.3" font-family="Times,serif" font-size="14.00">expression (func call)</text>
</g>
<!-- s2&#45;&#45;e2 -->
<g id="edge10" class="edge">
<title>s2&#45;&#45;e2</title>
<path fill="none" stroke="black" d="M198.98,-287.7C200.22,-276.85 201.81,-262.92 203.05,-252.1"/>
</g>
<!-- l2 -->
<g id="node12" class="node">
<title>l2</title>
<polygon fill="none" stroke="black" points="235,-180 175,-180 175,-144 235,-144 235,-180"/>
<text text-anchor="middle" x="205" y="-158.3" font-family="Times,serif" font-size="14.00">lhs (ptr)</text>
</g>
<!-- e2&#45;&#45;l2 -->
<g id="edge11" class="edge">
<title>e2&#45;&#45;l2</title>
<path fill="none" stroke="black" d="M205,-215.7C205,-204.85 205,-190.92 205,-180.1"/>
</g>
<!-- v3 -->
<g id="node13" class="node">
<title>v3</title>
<polygon fill="none" stroke="black" points="239.5,-108 170.5,-108 170.5,-72 239.5,-72 239.5,-108"/>
<text text-anchor="middle" x="205" y="-86.3" font-family="Times,serif" font-size="14.00">&quot;putchar&quot;</text>
</g>
<!-- l2&#45;&#45;v3 -->
<g id="edge12" class="edge">
<title>l2&#45;&#45;v3</title>
<path fill="none" stroke="black" d="M205,-143.7C205,-132.85 205,-118.92 205,-108.1"/>
</g>
</g>
</svg>
