<?xml version="1.0" encoding="UTF-8"?>
<svg id="f" width="488pt" height="488pt" enable-background="new" version="1.1" viewBox="0 0 488 488" xmlns="http://www.w3.org/2000/svg" xmlns:cc="http://creativecommons.org/ns#" xmlns:dc="http://purl.org/dc/elements/1.1/" xmlns:rdf="http://www.w3.org/1999/02/22-rdf-syntax-ns#" xmlns:xlink="http://www.w3.org/1999/xlink"><metadata id="g"><rdf:RDF><cc:Work rdf:about=""><dc:format>image/svg+xml</dc:format><dc:type rdf:resource="http://purl.org/dc/dcmitype/StillImage"/><dc:title/></cc:Work></rdf:RDF></metadata><defs id="h"><linearGradient id="a"><stop id="i" stop-color="#9cbd49" offset="0"/><stop id="j" stop-color="#bcd385" offset="1"/></linearGradient><linearGradient id="b" x1="488" x2="0" y2="488" gradientUnits="userSpaceOnUse"><stop id="k" stop-color="#ffd862" offset="0"/><stop id="l" stop-color="#ffffff" offset="1"/></linearGradient><linearGradient id="e" x1="306.8588" x2="365.8084" y1="484.7898" y2="439.6332" gradientTransform="matrix(.7968542 .07087611 -.07087611 .7968542 26.00401 -30.59182)" gradientUnits="userSpaceOnUse" xlink:href="#a"/><linearGradient id="d" x1="413.8321" x2="454.3806" y1="455.8694" y2="390.2877" gradientTransform="matrix(.7999254 -.01092086 .01092086 .7999254 -19.96266 -15.74516)" gradientUnits="userSpaceOnUse" xlink:href="#a"/><linearGradient id="c" x1="1038.898" x2="748.6484" y1="351.7149" y2="393.1426" gradientTransform="matrix(.1390339 .7878259 -.7878259 .1390339 383.049 -610.2992)" gradientUnits="userSpaceOnUse"><stop id="m" stop-color="#efc4d0" offset="0"/><stop id="n" stop-color="#fff3ff" offset="1"/><stop id="o" stop-color="#efc4d0" stop-opacity="0" offset="1"/></linearGradient></defs><g id="p"><rect id="q" width="488" height="488" fill="url(#b)"/></g><g id="r"><path id="s" d="m360.9496 488h-360.9496v-488h230.4297c78.68574 61.90587 111.4725 205.8727 118.562 266.4358 7.65697 34.20575 22.93898 193.595 11.95793 221.5642z" fill="#ebbf95"/><path id="t" d="m243.9904 13.92c4.38437 4.384368 19.66402 19.64506 19.66402 24.81456-17.87563 4.789761-244.9568 48.77855-263.6544 52.21544v-27.6c22.13215-3.973222 224.6312-45.40311 243.9904-49.43z" fill="#fdefd3"/><path id="u" d="m202.01 330.08c5.79775 3.58854 11.82754 30.11936 14.96788 52.01784 0.21903 5.04673-0.28658 85.83792-13.19788 105.9022h-35.93c17.05071-35.25729 36.36-103.9866 34.16-157.92z" fill="#e2a776"/><path id="v" d="m0 232.68c27.45149 47.54738 81.95386 209.0272 73.83 255.32-7.700755-28.73961-66.14194-162.6522-73.83-179.28z" fill="#e2a776"/><path id="w" d="m0 308.72c13.06283 13.06283 84.40402 173.1751 73.83 179.28h-73.83z" fill="#f9e9dc"/><path id="x" d="m24.44805 425.2651 1.728299 8.77213l-26.17635 7.34279v-8.96z" fill="#996959"/><path id="y" d="m352.3826 408.6554c5.41798 9.38421 8.56736 25.08629 8.56736 79.34462h-27.38c7.05853-14.96863 20.85506-56.39962 18.81264-79.34462z" fill="#e2a776"/></g><g id="z" fill="none" stroke="#996959" stroke-linecap="square" stroke-width="10.4"><path id="aa" d="m193.686 149.0183c21.28242 79.42706 41.00903 145.5716 10.09404 338.9817"/><path id="ab" d="m230.4297 0c71.30502 81.17586 139.6132 188.7524 130.5199 488"/><path id="ac" d="m0 308.72c4.429028 2.5571 68.93407 141.2467 73.83 179.28"/></g><g id="ad"><path id="ae" d="m284.1278 440.0108c-12.0742-6.77926-24.0298-18.87705-33.72794-34.12938-16.63022-26.15478-27.33127-62.62221-28.96155-98.69627-0.19416-4.29646-0.12053-6.94378 0.39716-14.27723 0.34953-4.95156 0.71363-10.73324 0.80919-12.84819l0.17362-3.8454 1.53565 3.26015c5.75689 12.22176 12.50522 23.41344 19.50952 32.35532 5.80583 7.41183 17.54115 15.47318 29.42265 20.21136 4.78251 1.90718 4.57962 1.86525 5.10124 1.05385 0.43772-0.6809 0.49463-0.56385 1.91065 3.92964 5.01925 15.92775 8.47987 31.89114 10.22204 47.15288 2.51172 22.00282 1.46822 40.76945-3.01246 54.18095-0.54474 1.63049-1.01079 2.95961-1.0357 2.95365-0.0251-6e-3 -1.07973-0.59146-2.3441-1.30133z" fill="url(#e)"/><path id="af" d="m279.3709 324.1284c17.68734 47.45017 20.52738 98.46956 8.67129 121.5983-43.98324-19.78937-66.71977-84.8987-69.15937-175.8569" fill="none" stroke="#996959" stroke-width="8"/><path id="ag" d="m378.5763 371.4975c-15.45548-1.76244-34.38952-9.24079-53.44891-21.11092-17.19382-10.70821-33.46205-24.4386-43.76375-36.93649-2.9117-3.53243-6.06973-7.92473-5.85586-8.1445 0.081-0.0832 3.74326 0.0677 8.13863 0.33517 4.39538 0.26747 8.01913 0.45265 8.05275 0.41151 0.11086-0.13559 1.42287-6.28208 1.7114-8.01766 2.45355-14.75832 1.64214-31.42158-2.36762-48.62115-0.65077-2.79152-1.44793-5.95459-1.77142-7.02901-0.3236-1.07441-0.54389-1.99898-0.49-2.05447 0.19528-0.20071 3.24314 1.09678 7.39908 3.14988 17.33923 8.56574 35.54808 25.51249 51.58958 48.01382 17.69162 24.81591 30.59407 53.81031 33.57295 75.44529 0.68087 4.94524 0.71643 4.71236-0.71438 4.68147-0.66138-0.0142-1.585-0.0695-2.05246-0.12294z" fill="url(#d)"/><path id="ah" d="m283.5121 235.049c50.78344 12.86702 101.2401 96.25221 101.8383 140.0683-38.68617 0.52816-96.5641-40.4566-114.3939-70.38751" fill="none" stroke="#996959" stroke-width="8"/><path id="ai" d="m205.3549 236.4184c2.57162 12.69781 5.82907 20.11198 7.87495 34.6246-6.20806 1.36401-138.5783 23.64494-148.3917 23.19793-0.6778-3.08506-2.51944-31.46198-2.3662-34.82624 8.27118-1.81729 131.048-20.39597 142.8829-22.99629z" fill="#755144"/><path id="aj" d="m182.889 118.681c1.63313 11.46721 3.29829 20.6344 6.13819 33.55984-9.88737 1.54645-125.4169 17.38725-136.717 19.87008-1.08193-4.92427-4.22948-27.56754-4.01437-32.29003 11.92175-1.68542 122.9969-19.62539 134.5932-21.13989z" fill="#755144" stroke-width="6.4"/><path id="ak" d="m183.2626 126.014c-4.69489-30.98727-6.81476-56.3257-6.51337-77.85277 0.067-4.786445 0.48888-13.74134 0.65934-13.9958 0.241-0.359787 7.83023 6.051211 12.89489 10.89295 3.13411 2.996169 9.34309 9.528126 12.48141 13.13065 20.83651 23.91854 39.09691 55.19952 49.79147 85.29531 0.90561 2.54851 1.67305 4.65277 1.70542 4.67613 0.0324 0.0234 0.88887-0.38436 1.90335-0.90604 15.60128-8.02277 32.2989-14.83559 45.92372-18.7374 7.7942-2.23207 18.76416-4.41772 24.7202-4.92524 17.12741-1.45948 30.68162 0.70161 42.74673 6.8155 2.392 1.21213 6.07326 3.40167 7.44762 4.42968l0.67406 0.5042-3.57531 6.58327c-6.32274 11.64216-6.8851 12.70043-6.84027 12.87232 0.0245 0.0929 4.2388 2.71879 9.36566 5.83521l9.32156 5.66622-2.12842 2.95102c-11.46983 15.9028-28.86021 29.67031-47.94245 37.95482-8.78852 3.8155-15.50345 5.88825-25.04857 7.73187-12.12224 2.34142-21.67129 2.85241-32.47195 1.73769-1.58764-0.16385-2.91064-0.26362-2.93998-0.22169-0.0293 0.0419 0.54208 1.65119 1.26982 3.57613 5.9954 15.85813 12.21994 40.8168 15.03377 60.28118 2.41557 16.70944 3.18397 29.3613 2.51398 41.39299-0.26944 4.83862-1.11194 11.43714-1.86274 14.58902l-0.18773 0.7878-1.10276-0.20617c-2.21158-0.41371-15.55505-2.69002-15.57236-2.65662-9e-3 0.0188-1.29949 3.50502-2.86598 7.74678-1.56649 4.24184-2.89907 7.78998-2.9613 7.88472-0.17513 0.26681-5.15301-2.59214-8.58025-4.92782-18.12981-12.35584-31.56583-32.19726-42.99985-63.49934-3.45975-9.4715-4.2284-12.04605-6.96958-23.34398-9.54577-39.34357-13.8431-58.14506-19.25318-84.2358-1.84386-8.89225-7.3969-39.64169-8.63701-47.82676z" fill="url(#c)"/><path id="al" d="m269.9384 350.6795 5.90621-15.96648 16.73881 2.88795c8.40119-36.01838-1.28699-86.85108-16.58244-120.7081 41.9423 0.72174 88.51668-11.55942 110.6502-50.70304l-18.8961-11.5595 10.57741-19.46815c-50.33254-23.16216-103.952-3.28136-123.8164 12.4097-16.05153-58.09443-44.70668-89.59373-77.55723-114.6273-5.4595 68.35079 21.18833 173.3169 36.25017 235.6478 8.80531 26.87873 22.94179 65.2802 56.72939 82.08709z" fill="none" stroke="#996959" stroke-width="8"/></g><g id="am"><path id="an" d="m73.83 488c25.60854-44.3553-15.03978-264.0031-35.67111-385.8584" fill="none" stroke="#996959" stroke-linecap="round" stroke-width="10.4"/></g></svg>
